<svg width="216" height="206" viewBox="0 0 216 206" fill="none" xmlns="http://www.w3.org/2000/svg">
<g opacity="0.8" clip-path="url(#clip0_2234_9590)">
<path d="M34.0829 144.335C35.2502 145.232 35.4507 146.783 34.5507 147.954C33.6506 149.126 32.1002 149.331 30.9329 148.434C29.7656 147.537 29.5651 145.986 30.4652 144.815C31.3652 143.644 33.0129 143.513 34.0829 144.335Z" fill="#FFCF2D"/>
<path d="M47.5082 126.864C48.6755 127.761 48.876 129.312 47.9759 130.484C47.0759 131.655 45.5255 131.86 44.3582 130.963C43.1909 130.066 42.9904 128.515 43.8905 127.344C44.7155 126.27 46.4382 126.042 47.5082 126.864Z" fill="#FFCF2D"/>
<path d="M60.8583 109.492C62.0256 110.389 62.2261 111.94 61.326 113.112C60.426 114.283 58.8756 114.488 57.7083 113.591C56.541 112.694 56.3405 111.143 57.2406 109.972C58.1406 108.801 59.7883 108.67 60.8583 109.492Z" fill="#FFCF2D"/>
<path d="M74.2836 92.0225C75.4509 92.9195 75.6514 94.4707 74.7513 95.6418C73.8513 96.813 72.3008 97.0186 71.1336 96.1216C69.9663 95.2245 69.7658 93.6734 70.6659 92.5022C71.5659 91.3311 73.2136 91.2002 74.2836 92.0225Z" fill="#FFCF2D"/>
<path d="M87.7089 74.5528C88.8762 75.4498 89.0766 77.001 88.1766 78.1721C87.2766 79.3433 85.7261 79.5489 84.5589 78.6518C83.3916 77.7548 83.1911 76.2037 84.0911 75.0325C84.9162 73.9589 86.6389 73.7305 87.7089 74.5528Z" fill="#FFCF2D"/>
<path d="M101.134 57.0831C102.301 57.9801 102.502 59.5312 101.602 60.7024C100.702 61.8736 99.1514 62.0792 97.9841 61.1821C96.8169 60.2851 96.6164 58.7339 97.5164 57.5628C98.4165 56.3916 100.064 56.2608 101.134 57.0831Z" fill="#FFCF2D"/>
<path d="M114.484 39.711C115.652 40.608 115.852 42.1592 114.952 43.3303C114.052 44.5015 112.502 44.7071 111.334 43.81C110.167 42.913 109.967 41.3619 110.867 40.1907C111.767 39.0195 113.414 38.8887 114.484 39.711Z" fill="#FFCF2D"/>
<path d="M127.91 22.2413C129.077 23.1383 129.277 24.6894 128.377 25.8606C127.477 27.0318 125.927 27.2374 124.76 26.3403C123.592 25.4433 123.392 23.8921 124.292 22.721C125.192 21.5498 126.84 21.419 127.91 22.2413Z" fill="#FFCF2D"/>
<path d="M141.335 4.77155C142.502 5.66858 142.703 7.21972 141.803 8.39088C140.903 9.56203 139.352 9.76763 138.185 8.87059C137.018 7.97356 136.817 6.42241 137.717 5.25125C138.542 4.17769 140.265 3.94926 141.335 4.77155Z" fill="#FFCF2D"/>
<path d="M48.5766 155.473C49.7439 156.37 49.9443 157.921 49.0443 159.092C48.1443 160.263 46.5938 160.469 45.4265 159.572C44.2593 158.675 44.0588 157.124 44.9588 155.952C45.8588 154.781 47.4093 154.576 48.5766 155.473Z" fill="#FFCF2D"/>
<path d="M62.0019 138.003C63.1692 138.9 63.3696 140.451 62.4696 141.622C61.5696 142.793 60.0191 142.999 58.8518 142.102C57.6845 141.205 57.4841 139.654 58.3841 138.483C59.2091 137.409 60.8346 137.106 62.0019 138.003Z" fill="#FFCF2D"/>
<path d="M75.352 120.631C76.5193 121.528 76.7197 123.079 75.8197 124.25C74.9197 125.421 73.3692 125.627 72.2019 124.73C71.0346 123.833 70.8342 122.282 71.7342 121.111C72.6342 119.939 74.1847 119.734 75.352 120.631Z" fill="#FFCF2D"/>
<path d="M88.7773 103.161C89.9446 104.058 90.145 105.609 89.245 106.781C88.345 107.952 86.7945 108.157 85.6272 107.26C84.4599 106.363 84.2595 104.812 85.1595 103.641C86.0595 102.47 87.61 102.264 88.7773 103.161Z" fill="#FFCF2D"/>
<path d="M102.203 85.6905C103.37 86.5875 103.57 88.1387 102.67 89.3098C101.77 90.481 100.22 90.6866 99.0525 89.7895C97.8852 88.8925 97.6848 87.3414 98.5848 86.1702C99.4098 85.0966 101.035 84.7934 102.203 85.6905Z" fill="#FFCF2D"/>
<path d="M115.628 68.2208C116.795 69.1178 116.996 70.6689 116.096 71.8401C115.196 73.0113 113.645 73.2169 112.478 72.3198C111.311 71.4228 111.11 69.8716 112.01 68.7005C112.91 67.5293 114.461 67.3237 115.628 68.2208Z" fill="#FFCF2D"/>
<path d="M128.978 50.8487C130.145 51.7457 130.346 53.2969 129.446 54.468C128.546 55.6392 126.995 55.8448 125.828 54.9477C124.661 54.0507 124.46 52.4996 125.36 51.3284C126.26 50.1572 127.811 49.9517 128.978 50.8487Z" fill="#FFCF2D"/>
<path d="M142.403 33.3789C143.571 34.276 143.771 35.8271 142.871 36.9983C141.971 38.1695 140.42 38.3751 139.253 37.478C138.086 36.581 137.885 35.0298 138.785 33.8587C139.685 32.6875 141.236 32.4819 142.403 33.3789Z" fill="#FFCF2D"/>
<path d="M155.829 15.9092C156.996 16.8063 157.196 18.3574 156.296 19.5286C155.396 20.6997 153.846 20.9053 152.678 20.0083C151.511 19.1113 151.311 17.5601 152.211 16.3889C153.036 15.3154 154.661 15.0122 155.829 15.9092Z" fill="#FFCF2D"/>
<path d="M5.1928 122.133C6.36008 123.03 6.56053 124.581 5.66052 125.752C4.7605 126.923 3.21003 127.129 2.04275 126.232C0.875462 125.335 0.675012 123.784 1.57503 122.613C2.47504 121.441 4.02552 121.236 5.1928 122.133Z" fill="#FFCF2D"/>
<path d="M18.6181 104.663C19.7854 105.56 19.9858 107.111 19.0858 108.282C18.1858 109.454 16.6353 109.659 15.468 108.762C14.3008 107.865 14.1003 106.314 15.0003 105.143C15.8253 104.069 17.4508 103.766 18.6181 104.663Z" fill="#FFCF2D"/>
<path d="M31.9682 87.2911C33.1355 88.1881 33.3359 89.7392 32.4359 90.9104C31.5359 92.0816 29.9854 92.2872 28.8181 91.3901C27.6509 90.4931 27.5254 88.8443 28.3504 87.7708C29.2504 86.5996 30.8009 86.394 31.9682 87.2911Z" fill="#FFCF2D"/>
<path d="M45.3935 69.8213C46.5608 70.7184 46.7612 72.2695 45.8612 73.4407C44.9612 74.6118 43.4107 74.8174 42.2434 73.9204C41.0761 73.0234 40.9507 71.3746 41.7757 70.3011C42.6007 69.2275 44.2262 68.9243 45.3935 69.8213Z" fill="#FFCF2D"/>
<path d="M58.8188 52.3516C59.9861 53.2486 60.1865 54.7998 59.2865 55.971C58.3865 57.1421 56.836 57.3477 55.6687 56.4507C54.5014 55.5536 54.301 54.0025 55.201 52.8313C56.026 51.7578 57.6515 51.4546 58.8188 52.3516Z" fill="#FFCF2D"/>
<path d="M72.2441 34.8809C73.4114 35.7779 73.6118 37.3291 72.7118 38.5002C71.8118 39.6714 70.2613 39.877 69.094 38.98C67.9267 38.0829 67.7263 36.5318 68.6263 35.3606C69.5263 34.1895 71.0768 33.9839 72.2441 34.8809Z" fill="#FFCF2D"/>
<path d="M85.5942 17.5088C86.7614 18.4059 86.9619 19.957 86.0619 21.1282C85.1619 22.2993 83.6114 22.5049 82.4441 21.6079C81.2768 20.7109 81.0764 19.1597 81.9764 17.9886C82.8764 16.8174 84.4269 16.6118 85.5942 17.5088Z" fill="#FFCF2D"/>
<path d="M99.0195 0.0391024C100.187 0.936138 100.387 2.48729 99.4872 3.65845C98.5872 4.82961 97.0367 5.03521 95.8694 4.13817C94.7021 3.24114 94.5017 1.68999 95.4017 0.518828C96.3017 -0.652333 97.8522 -0.857933 99.0195 0.0391024Z" fill="#FFCF2D"/>
<path d="M19.6865 133.272C20.8537 134.169 21.0542 135.72 20.1542 136.891C19.2542 138.062 17.6064 138.193 16.5364 137.371C15.3691 136.474 15.1687 134.922 16.0687 133.751C16.9687 132.58 18.5192 132.374 19.6865 133.272Z" fill="#FFCF2D"/>
<path d="M33.1117 115.801C34.279 116.698 34.4795 118.249 33.5795 119.42C32.6794 120.591 31.129 120.797 29.9617 119.9C28.7944 119.003 28.594 117.452 29.494 116.281C30.319 115.207 31.9445 114.904 33.1117 115.801Z" fill="#FFCF2D"/>
<path d="M46.4618 98.4288C47.6291 99.3258 47.8296 100.877 46.9296 102.048C46.0295 103.219 44.4791 103.425 43.3118 102.528C42.1445 101.631 41.9441 100.08 42.8441 98.9085C43.7441 97.7373 45.2946 97.5317 46.4618 98.4288Z" fill="#FFCF2D"/>
<path d="M59.8871 80.959C61.0544 81.8561 61.2549 83.4072 60.3549 84.5784C59.4548 85.7495 57.9044 85.9551 56.7371 85.0581C55.5698 84.1611 55.3693 82.6099 56.2694 81.4387C57.1694 80.2676 58.7199 80.062 59.8871 80.959Z" fill="#FFCF2D"/>
<path d="M73.3124 63.4893C74.4797 64.3863 74.6802 65.9375 73.7801 67.1086C72.8801 68.2798 71.3297 68.4854 70.1624 67.5884C68.9951 66.6913 68.7946 65.1402 69.6947 63.969C70.5197 62.8955 72.1451 62.5923 73.3124 63.4893Z" fill="#FFCF2D"/>
<path d="M86.7377 46.0196C87.905 46.9166 88.1055 48.4678 87.2054 49.6389C86.3054 50.8101 84.7549 51.0157 83.5877 50.1186C82.4204 49.2216 82.2199 47.6705 83.1199 46.4993C84.02 45.3281 85.5704 45.1225 86.7377 46.0196Z" fill="#FFCF2D"/>
<path d="M100.088 28.6475C101.255 29.5445 101.456 31.0957 100.556 32.2669C99.6555 33.438 98.105 33.6436 96.9378 32.7466C95.7705 31.8495 95.57 30.2984 96.47 29.1272C97.3701 27.9561 98.9205 27.7505 100.088 28.6475Z" fill="#FFCF2D"/>
<path d="M113.513 11.1778C114.68 12.0748 114.881 13.626 113.981 14.7971C113.081 15.9683 111.53 16.1739 110.363 15.2768C109.196 14.3798 108.995 12.8287 109.895 11.6575C110.795 10.4863 112.346 10.2807 113.513 11.1778Z" fill="#FFCF2D"/>
<path d="M62.9736 166.536C64.1408 167.433 64.3413 168.984 63.4413 170.156C62.5413 171.327 60.9908 171.532 59.8235 170.635C58.6562 169.738 58.4558 168.187 59.3558 167.016C60.2558 165.845 61.9036 165.714 62.9736 166.536Z" fill="#FFCF2D"/>
<path d="M76.3989 149.066C77.5661 149.963 77.7666 151.515 76.8666 152.686C75.9665 153.857 74.4161 154.063 73.2488 153.166C72.0815 152.268 71.8811 150.717 72.7811 149.546C73.6061 148.473 75.3288 148.244 76.3989 149.066Z" fill="#FFCF2D"/>
<path d="M89.749 131.694C90.9162 132.591 91.1167 134.143 90.2167 135.314C89.3167 136.485 87.7662 136.69 86.5989 135.793C85.4316 134.896 85.2312 133.345 86.1312 132.174C87.0312 131.003 88.6789 130.872 89.749 131.694Z" fill="#FFCF2D"/>
<path d="M103.174 114.225C104.342 115.122 104.542 116.673 103.642 117.844C102.742 119.015 101.191 119.221 100.024 118.324C98.8569 117.427 98.6565 115.876 99.5565 114.704C100.456 113.533 102.104 113.402 103.174 114.225Z" fill="#FFCF2D"/>
<path d="M116.6 96.7549C117.767 97.652 117.967 99.2031 117.067 100.374C116.167 101.545 114.617 101.751 113.449 100.854C112.282 99.957 112.082 98.4058 112.982 97.2346C113.807 96.1611 115.53 95.9326 116.6 96.7549Z" fill="#FFCF2D"/>
<path d="M130.025 79.2842C131.192 80.1813 131.393 81.7324 130.493 82.9036C129.593 84.0747 128.042 84.2803 126.875 83.3833C125.707 82.4863 125.507 80.9351 126.407 79.7639C127.307 78.5928 128.955 78.4619 130.025 79.2842Z" fill="#FFCF2D"/>
<path d="M143.375 61.9121C144.542 62.8092 144.743 64.3603 143.843 65.5315C142.943 66.7027 141.392 66.9083 140.225 66.0112C139.058 65.1142 138.857 63.563 139.757 62.3919C140.657 61.2207 142.305 61.0899 143.375 61.9121Z" fill="#FFCF2D"/>
<path d="M156.8 44.4424C157.968 45.3395 158.168 46.8906 157.268 48.0618C156.368 49.2329 154.817 49.4385 153.65 48.5415C152.483 47.6445 152.282 46.0933 153.182 44.9221C154.082 43.751 155.73 43.6201 156.8 44.4424Z" fill="#FFCF2D"/>
<path d="M170.226 26.9727C171.393 27.8697 171.593 29.4209 170.693 30.592C169.793 31.7632 168.243 31.9688 167.075 31.0718C165.908 30.1747 165.708 28.6236 166.608 27.4524C167.433 26.3789 169.155 26.1504 170.226 26.9727Z" fill="#FFCF2D"/>
<path d="M77.4672 177.674C78.6345 178.571 78.8349 180.122 77.9349 181.293C77.0349 182.464 75.4844 182.67 74.3172 181.773C73.1499 180.876 72.9494 179.325 73.8494 178.154C74.7495 176.982 76.2999 176.777 77.4672 177.674Z" fill="#FFCF2D"/>
<path d="M90.8925 160.204C92.0598 161.101 92.2602 162.652 91.3602 163.823C90.4602 164.995 88.9097 165.2 87.7424 164.303C86.5752 163.406 86.3747 161.855 87.2747 160.684C88.0998 159.61 89.7252 159.307 90.8925 160.204Z" fill="#FFCF2D"/>
<path d="M104.243 142.832C105.41 143.729 105.61 145.28 104.71 146.451C103.81 147.623 102.26 147.828 101.093 146.931C99.9253 146.034 99.7248 144.483 100.625 143.312C101.525 142.141 103.075 141.935 104.243 142.832Z" fill="#FFCF2D"/>
<path d="M118.136 128.982C119.005 127.85 118.796 126.229 117.668 125.362C116.54 124.495 114.92 124.71 114.05 125.842C113.18 126.974 113.39 128.594 114.518 129.461C115.646 130.328 117.266 130.114 118.136 128.982Z" fill="#FFCF2D"/>
<path d="M131.093 107.893C132.26 108.79 132.461 110.341 131.561 111.512C130.661 112.683 129.11 112.889 127.943 111.992C126.776 111.095 126.575 109.544 127.475 108.372C128.3 107.299 129.926 106.996 131.093 107.893Z" fill="#FFCF2D"/>
<path d="M144.518 90.4229C145.686 91.3199 145.886 92.8711 144.986 94.0422C144.086 95.2134 142.536 95.419 141.368 94.522C140.201 93.6249 140.001 92.0738 140.901 90.9026C141.801 89.7315 143.351 89.5259 144.518 90.4229Z" fill="#FFCF2D"/>
<path d="M157.869 73.0508C159.036 73.9479 159.236 75.499 158.336 76.6702C157.436 77.8413 155.886 78.0469 154.719 77.1499C153.551 76.2529 153.351 74.7017 154.251 73.5305C155.151 72.3594 156.701 72.1538 157.869 73.0508Z" fill="#FFCF2D"/>
<path d="M171.762 59.2004C172.631 58.0685 172.422 56.4481 171.294 55.5811C170.166 54.7141 168.546 54.9289 167.676 56.0608C166.806 57.1927 167.016 58.8132 168.144 59.6802C169.272 60.5471 170.892 60.3324 171.762 59.2004Z" fill="#FFCF2D"/>
<path d="M184.719 38.1114C185.886 39.0084 186.087 40.5595 185.187 41.7307C184.287 42.9019 182.736 43.1075 181.569 42.2104C180.402 41.3134 180.201 39.7622 181.101 38.5911C181.926 37.5175 183.552 37.2143 184.719 38.1114Z" fill="#FFCF2D"/>
<path d="M91.9609 188.813C93.1282 189.71 93.3286 191.261 92.4286 192.432C91.5286 193.603 89.9781 193.809 88.8108 192.912C87.6435 192.015 87.4431 190.463 88.3431 189.292C89.2431 188.121 90.7936 187.916 91.9609 188.813Z" fill="#FFCF2D"/>
<path d="M105.386 171.343C106.553 172.24 106.754 173.791 105.854 174.962C104.954 176.133 103.403 176.339 102.236 175.442C101.069 174.545 100.868 172.994 101.768 171.823C102.593 170.749 104.219 170.446 105.386 171.343Z" fill="#FFCF2D"/>
<path d="M118.736 153.971C119.904 154.868 120.104 156.419 119.204 157.59C118.304 158.761 116.753 158.967 115.586 158.07C114.419 157.173 114.218 155.622 115.118 154.45C116.018 153.279 117.569 153.074 118.736 153.971Z" fill="#FFCF2D"/>
<path d="M132.162 136.501C133.329 137.398 133.529 138.949 132.629 140.12C131.729 141.292 130.179 141.497 129.012 140.6C127.844 139.703 127.644 138.152 128.544 136.981C129.444 135.81 130.994 135.604 132.162 136.501Z" fill="#FFCF2D"/>
<path d="M145.587 119.031C146.754 119.928 146.955 121.479 146.055 122.651C145.155 123.822 143.604 124.027 142.437 123.13C141.27 122.233 141.069 120.682 141.969 119.511C142.794 118.437 144.42 118.134 145.587 119.031Z" fill="#FFCF2D"/>
<path d="M159.012 101.561C160.179 102.458 160.38 104.009 159.48 105.18C158.58 106.351 157.029 106.557 155.862 105.66C154.695 104.763 154.494 103.211 155.394 102.04C156.294 100.869 157.845 100.664 159.012 101.561Z" fill="#FFCF2D"/>
<path d="M172.362 84.1885C173.53 85.0856 173.73 86.6367 172.83 87.8079C171.93 88.979 170.379 89.1846 169.212 88.2876C168.045 87.3906 167.844 85.8394 168.744 84.6682C169.644 83.4971 171.195 83.2915 172.362 84.1885Z" fill="#FFCF2D"/>
<path d="M185.788 66.7188C186.955 67.6158 187.155 69.167 186.255 70.3381C185.355 71.5093 183.805 71.7149 182.637 70.8179C181.47 69.9208 181.27 68.3697 182.17 67.1985C183.07 66.0274 184.62 65.8218 185.788 66.7188Z" fill="#FFCF2D"/>
<path d="M199.213 49.2491C200.38 50.1461 200.581 51.6973 199.681 52.8684C198.781 54.0396 197.23 54.2452 196.063 53.3481C194.895 52.4511 194.695 50.8999 195.595 49.7288C196.42 48.6552 198.046 48.352 199.213 49.2491Z" fill="#FFCF2D"/>
<path d="M106.357 199.876C107.525 200.773 107.725 202.324 106.825 203.495C105.925 204.667 104.375 204.872 103.207 203.975C102.04 203.078 101.84 201.527 102.74 200.356C103.64 199.185 105.287 199.054 106.357 199.876Z" fill="#FFCF2D"/>
<path d="M119.783 182.406C120.95 183.303 121.15 184.854 120.25 186.026C119.35 187.197 117.8 187.402 116.633 186.505C115.465 185.608 115.265 184.057 116.165 182.886C116.99 181.812 118.713 181.584 119.783 182.406Z" fill="#FFCF2D"/>
<path d="M133.133 165.034C134.3 165.931 134.5 167.482 133.6 168.654C132.7 169.825 131.15 170.03 129.983 169.133C128.815 168.236 128.615 166.685 129.515 165.514C130.415 164.343 132.063 164.212 133.133 165.034Z" fill="#FFCF2D"/>
<path d="M146.558 147.564C147.725 148.462 147.926 150.013 147.026 151.184C146.126 152.355 144.575 152.561 143.408 151.664C142.241 150.767 142.04 149.215 142.94 148.044C143.84 146.873 145.488 146.742 146.558 147.564Z" fill="#FFCF2D"/>
<path d="M159.983 130.094C161.151 130.991 161.351 132.542 160.451 133.713C159.551 134.884 158.001 135.09 156.833 134.193C155.666 133.296 155.466 131.745 156.366 130.574C157.191 129.5 158.913 129.272 159.983 130.094Z" fill="#FFCF2D"/>
<path d="M173.409 112.624C174.576 113.521 174.776 115.072 173.876 116.243C172.976 117.415 171.426 117.62 170.259 116.723C169.091 115.826 168.891 114.275 169.791 113.104C170.691 111.933 172.339 111.802 173.409 112.624Z" fill="#FFCF2D"/>
<path d="M186.759 95.252C187.926 96.149 188.126 97.7002 187.226 98.8713C186.326 100.042 184.776 100.248 183.609 99.3511C182.441 98.454 182.241 96.9029 183.141 95.7317C184.041 94.5606 185.689 94.4297 186.759 95.252Z" fill="#FFCF2D"/>
<path d="M200.184 77.7823C201.351 78.6793 201.552 80.2305 200.652 81.4016C199.752 82.5728 198.201 82.7784 197.034 81.8813C195.867 80.9843 195.666 79.4332 196.566 78.262C197.466 77.0908 199.114 76.96 200.184 77.7823Z" fill="#FFCF2D"/>
<path d="M213.609 60.3126C214.777 61.2096 214.977 62.7607 214.077 63.9319C213.177 65.103 211.627 65.3086 210.459 64.4116C209.292 63.5146 209.092 61.9634 209.992 60.7923C210.817 59.7187 212.539 59.4903 213.609 60.3126Z" fill="#FFCF2D"/>
</g>
<defs>
<clipPath id="clip0_2234_9590">
<rect width="181.184" height="132.739" fill="white" transform="translate(0 124.662) rotate(-52.4584)"/>
</clipPath>
</defs>
</svg>
